<?xml version="1.0" standalone="no"?>
<!DOCTYPE svg PUBLIC "-//W3C//DTD SVG 20010904//EN"
 "http://www.w3.org/TR/2001/REC-SVG-20010904/DTD/svg10.dtd">
<svg version="1.0" xmlns="http://www.w3.org/2000/svg"
 width="1727.000000pt" height="2047.000000pt" viewBox="0 0 1727.000000 2047.000000"
 preserveAspectRatio="xMidYMid meet">

<g transform="translate(0.000000,2047.000000) scale(0.100000,-0.100000)"
fill="#000000" stroke="none">
<path d="M8270 20460 c-702 -67 -1251 -311 -1696 -755 -445 -444 -709 -1019
-799 -1745 -32 -260 -38 -488 -32 -1253 7 -938 37 -1594 118 -2547 26 -297 22
-548 -10 -670 -70 -271 -156 -427 -367 -666 -49 -55 -145 -165 -214 -244 -69
-78 -208 -238 -310 -354 -484 -551 -654 -762 -837 -1036 -240 -361 -343 -603
-488 -1144 -146 -549 -262 -863 -512 -1391 -99 -209 -139 -286 -386 -755 -193
-365 -248 -482 -297 -627 -88 -264 -93 -517 -15 -813 21 -77 74 -240 79 -240
0 0 39 37 86 83 137 133 264 187 441 187 223 0 444 -112 655 -332 143 -150
434 -551 779 -1073 223 -336 346 -536 585 -945 95 -162 222 -374 283 -470 188
-300 217 -349 324 -558 57 -112 108 -211 113 -220 13 -24 80 -172 80 -178 0
-3 13 -32 30 -65 16 -33 29 -62 29 -64 1 -3 7 -18 15 -33 7 -15 21 -47 29 -72
9 -25 28 -76 42 -115 15 -38 28 -77 30 -86 2 -9 16 -54 30 -100 25 -76 33
-111 38 -161 1 -10 5 -18 10 -18 4 0 7 -6 6 -12 -2 -11 4 -58 17 -123 3 -11 4
-81 4 -155 -1 -74 -1 -146 -1 -160 0 -57 -75 -332 -99 -365 -4 -5 -11 -21 -15
-34 -10 -34 -78 -144 -131 -212 -161 -209 -442 -380 -695 -423 -164 -27 -402
-21 -539 14 -41 10 -89 21 -106 24 -17 3 -48 12 -70 19 -21 8 -45 12 -51 10
-7 -3 -13 0 -13 7 0 6 -4 9 -9 5 -5 -3 -12 -1 -15 4 -3 5 -23 12 -43 15 -36 6
-60 13 -108 32 -11 4 -22 8 -25 9 -3 1 -18 7 -33 13 -15 7 -31 11 -35 10 -4
-1 -14 2 -22 5 -46 20 -129 45 -134 40 -3 -4 -6 -1 -6 5 0 8 -50 27 -62 23 -2
-1 -57 17 -123 40 -66 22 -127 42 -135 44 -8 2 -42 11 -75 20 -33 9 -71 18
-85 21 -14 3 -61 14 -105 25 -100 25 -134 32 -162 33 -13 0 -23 3 -23 6 0 4
-15 6 -32 5 -18 -1 -41 2 -50 7 -10 4 -39 11 -65 13 -26 3 -91 14 -143 25
-102 21 -317 57 -389 65 -24 2 -69 9 -100 15 -31 5 -74 12 -96 16 -22 3 -58 9
-80 14 -22 5 -62 12 -90 15 -44 5 -86 13 -120 21 -13 3 -111 22 -150 28 -40 7
-76 14 -147 31 -32 7 -58 11 -58 9 0 -3 -8 0 -18 5 -11 6 -30 12 -43 15 -13 2
-44 9 -69 15 -25 5 -60 13 -79 16 -19 3 -41 10 -50 14 -9 5 -32 11 -51 14 -34
6 -131 29 -200 48 -19 5 -44 11 -55 12 -11 1 -25 5 -30 9 -6 3 -28 9 -50 13
-184 33 -477 145 -548 211 -14 13 -29 24 -32 24 -16 0 -125 92 -125 106 0 3
-10 16 -22 29 -35 36 -53 59 -49 60 2 0 -4 17 -12 37 -13 30 -20 36 -34 31
-15 -6 -16 -4 -6 8 10 12 9 20 -3 37 -8 12 -12 22 -9 22 4 0 -1 7 -9 16 -9 8
-16 22 -16 30 0 8 -5 12 -10 9 -7 -4 -9 2 -4 19 4 16 1 32 -7 42 -10 13 -10
17 2 25 10 6 10 9 2 9 -20 0 -15 20 5 20 13 0 14 2 3 9 -7 5 -11 13 -7 19 3 6
2 13 -4 17 -5 3 -10 12 -10 18 0 8 3 7 9 -2 6 -9 10 -2 13 23 2 20 2 39 -1 42
-9 8 -10 34 -1 29 11 -7 17 14 16 48 -1 15 2 27 6 27 4 0 8 -5 8 -12 0 -6 3
-8 6 -5 4 4 1 13 -6 22 -7 9 -8 15 -2 15 6 0 13 19 17 43 4 23 12 48 17 54 6
7 12 30 14 50 l4 38 -25 -48 c-14 -26 -23 -53 -19 -59 4 -6 3 -8 -3 -5 -12 8
-122 -219 -157 -323 -45 -138 -52 -281 -17 -397 19 -64 66 -136 128 -194 92
-86 202 -135 473 -213 124 -35 302 -89 395 -119 545 -176 717 -223 1420 -382
902 -204 1163 -283 1710 -515 428 -182 625 -245 845 -271 183 -21 408 3 589
63 206 69 381 179 546 343 151 151 270 338 340 537 l27 77 67 15 c458 103 918
148 1521 148 556 0 1030 -35 1664 -123 464 -64 990 -174 1616 -339 30 -8 40
-19 67 -72 92 -187 263 -337 525 -463 643 -307 1285 -245 1840 177 109 82 208
172 468 423 423 409 699 623 1105 855 88 51 381 201 650 336 497 247 636 323
786 430 173 123 343 321 404 473 28 67 30 81 14 81 -5 0 -7 -4 -4 -10 6 -9 -8
-14 -28 -11 -4 1 -23 -10 -41 -24 -18 -14 -38 -25 -45 -25 -6 0 -14 -7 -17
-15 -4 -8 -10 -13 -14 -10 -9 5 -69 -40 -83 -62 -4 -7 -14 -13 -21 -13 -7 0
-21 -10 -32 -21 -10 -12 -69 -58 -129 -103 -129 -94 -144 -105 -167 -112 -10
-4 -18 -11 -18 -16 0 -5 -4 -6 -10 -3 -5 3 -10 1 -10 -4 0 -6 -7 -11 -15 -11
-8 0 -15 -4 -15 -9 0 -5 -16 -15 -35 -22 -19 -7 -35 -17 -35 -22 0 -4 -4 -5
-10 -2 -5 3 -10 1 -10 -5 0 -6 -4 -8 -10 -5 -5 3 -10 3 -10 -2 0 -9 -43 -29
-145 -69 -38 -14 -73 -32 -77 -38 -4 -6 -8 -8 -8 -4 0 3 -48 -11 -107 -32
-123 -43 -138 -48 -175 -62 -15 -6 -28 -9 -30 -8 -2 1 -16 -4 -33 -10 -28 -11
-39 -14 -83 -24 -10 -2 -35 -11 -55 -20 -20 -8 -37 -13 -37 -11 0 3 -12 0 -27
-6 -16 -6 -35 -12 -43 -14 -8 -2 -31 -10 -51 -19 -20 -8 -39 -12 -43 -9 -3 4
-6 2 -6 -3 0 -5 -12 -11 -27 -12 -15 -1 -29 -5 -32 -10 -3 -4 -15 -8 -26 -10
-11 -2 -33 -10 -49 -18 -16 -8 -37 -14 -48 -14 -10 0 -18 -3 -18 -8 0 -4 -24
-16 -52 -26 -57 -19 -112 -42 -140 -57 -10 -5 -25 -9 -33 -9 -8 0 -15 -4 -15
-9 0 -7 -28 -19 -47 -19 -3 0 -9 -4 -12 -9 -7 -9 -27 -21 -133 -79 -42 -23
-84 -48 -92 -55 -32 -30 -44 -38 -48 -34 -2 2 -17 -7 -32 -20 -16 -13 -41 -30
-57 -37 -16 -7 -29 -16 -29 -20 0 -5 -6 -8 -14 -8 -8 0 -16 -4 -18 -8 -1 -5
-32 -29 -66 -53 -96 -66 -115 -79 -134 -85 -10 -4 -15 -10 -12 -15 3 -5 0 -9
-6 -9 -6 0 -40 -25 -77 -55 -37 -30 -69 -53 -71 -50 -2 2 -18 -9 -36 -25 -17
-16 -43 -35 -58 -41 -16 -6 -28 -15 -28 -20 0 -5 -5 -9 -10 -9 -6 0 -23 -11
-38 -25 -15 -14 -32 -25 -39 -25 -7 0 -13 -4 -13 -10 0 -5 -20 -19 -45 -30
-26 -12 -48 -27 -52 -35 -3 -8 -9 -13 -13 -10 -4 2 -15 -4 -25 -15 -9 -10 -46
-33 -80 -49 -35 -17 -67 -36 -70 -41 -4 -6 -11 -8 -16 -5 -5 4 -9 1 -9 -5 0
-7 -7 -9 -17 -6 -10 4 -14 4 -10 0 7 -7 -97 -65 -120 -66 -7 -1 -13 -5 -13
-10 0 -4 -3 -7 -7 -6 -5 1 -24 -4 -43 -11 -19 -8 -38 -13 -42 -12 -5 0 -8 -3
-8 -8 0 -5 -33 -17 -72 -26 -40 -10 -84 -23 -98 -28 -39 -16 -79 -25 -145 -33
-22 -3 -56 -7 -75 -9 -83 -11 -328 -3 -400 11 -95 20 -129 26 -157 28 -13 0
-23 4 -23 7 0 4 -8 9 -17 12 -10 4 -35 13 -55 20 -21 8 -38 13 -38 11 0 -7
-98 41 -144 70 -27 17 -51 29 -54 28 -3 -2 -9 3 -14 12 -5 9 -15 16 -22 16 -8
0 -28 16 -45 35 -17 20 -31 33 -31 31 0 -3 -17 11 -38 32 -40 38 -142 176
-142 190 0 4 -11 23 -25 42 -13 18 -22 37 -19 41 3 5 0 9 -5 9 -6 0 -11 8 -11
18 0 10 -3 22 -7 26 -5 4 -8 11 -8 14 -1 4 -11 36 -22 72 -12 36 -27 92 -33
125 -6 33 -13 69 -15 81 -3 11 -6 37 -7 57 -2 20 -6 37 -9 37 -9 0 -8 370 1
477 12 131 19 207 25 273 2 30 9 109 15 175 20 242 28 625 16 795 -6 80 -20
324 -31 525 -2 55 -7 295 -10 533 -3 239 -7 437 -9 441 -3 4 -7 88 -11 187 -3
98 -7 208 -9 244 -13 185 -19 311 -17 365 l1 60 -20 -35 c-10 -19 -27 -69 -36
-110 -18 -80 -17 -218 7 -590 13 -215 17 -868 5 -1083 l-8 -158 -128 -137
c-137 -146 -569 -563 -760 -732 -749 -666 -1377 -973 -2220 -1087 -168 -22
-703 -26 -870 -5 -485 60 -894 182 -1302 388 l-149 76 -113 151 c-62 84 -203
264 -314 401 -111 138 -200 252 -198 254 3 2 42 -6 88 -18 115 -30 307 -37
407 -16 310 66 494 319 452 621 -43 308 -244 575 -697 930 -707 554 -1318
1072 -1734 1471 l-95 92 1 303 c1 197 7 369 18 489 107 1174 521 2320 1237
3421 l69 106 -6 119 c-4 66 -1 173 5 241 43 464 199 819 630 1432 271 385 344
509 400 676 47 142 60 237 71 535 9 251 24 443 37 476 13 35 174 -140 387
-421 280 -370 438 -495 724 -573 89 -24 113 -26 297 -26 171 -1 217 2 314 22
162 33 366 102 518 176 126 62 249 133 242 141 -2 2 -47 -7 -99 -19 -381 -92
-788 -85 -1125 21 -88 28 -249 100 -294 132 -18 13 -45 21 -71 21 -32 0 -53 8
-89 34 -61 45 -117 106 -96 106 8 0 15 6 15 14 0 26 57 35 275 40 193 4 244 9
420 40 110 20 214 36 232 36 18 0 105 18 194 41 467 118 744 264 1104 582 131
117 196 162 335 235 123 65 145 85 156 146 l7 39 -51 -6 c-77 -9 -136 -46
-262 -162 -117 -109 -317 -265 -477 -373 -347 -233 -589 -332 -1021 -416 -273
-53 -436 -69 -637 -63 -332 11 -513 74 -790 278 -163 119 -254 171 -340 190
l-55 12 0 273 0 272 47 63 c26 34 82 98 124 141 l76 78 -34 26 c-45 34 -133
153 -173 234 -96 191 -134 404 -161 891 -7 130 -8 225 -3 241 5 15 46 67 92
117 l82 90 -10 43 c-26 113 2 239 74 335 72 95 191 167 298 180 43 6 48 8 28
14 -17 5 -5 7 38 8 39 1 62 -3 62 -10 0 -7 9 -9 21 -6 42 11 187 -46 222 -87
10 -11 16 -14 12 -6 -4 8 3 4 16 -10 13 -14 20 -19 14 -10 -7 12 -7 13 5 3 8
-7 15 -19 16 -26 1 -7 15 -33 32 -57 31 -47 62 -126 62 -160 0 -12 9 -22 23
-25 79 -18 112 -23 118 -19 11 6 103 -180 138 -280 41 -116 79 -306 87 -431
l5 -100 -105 -153 c-58 -84 -108 -157 -111 -162 -3 -6 13 -1 37 9 183 78 376
120 579 128 227 8 398 -25 601 -116 l64 -28 -79 161 c-44 88 -92 180 -108 204
-36 54 -49 129 -49 293 0 140 9 207 46 324 l25 80 107 41 c59 23 133 50 165
60 l57 18 130 221 c72 122 130 227 130 233 0 6 23 18 52 27 95 28 180 38 277
32 410 -25 757 -353 886 -839 38 -141 55 -286 55 -465 0 -400 -95 -698 -286
-894 l-55 -56 43 -12 c119 -36 218 -114 233 -182 4 -19 19 -59 34 -89 23 -49
26 -67 25 -155 0 -68 -7 -129 -23 -190 -12 -49 -31 -148 -42 -219 -21 -140
-22 -144 -95 -226 -26 -30 -34 -43 -18 -27 17 15 33 27 36 27 11 0 109 -210
187 -403 109 -266 164 -384 361 -772 93 -181 194 -386 225 -454 204 -448 357
-944 436 -1416 l22 -130 74 -79 c113 -120 272 -323 377 -481 371 -555 598
-1193 695 -1955 40 -314 46 -424 46 -900 -1 -528 -17 -778 -85 -1340 -12 -91
-22 -174 -23 -185 -2 -18 8 -22 105 -36 60 -9 111 -18 114 -22 3 -3 -1 -29 -9
-59 -44 -154 -62 -348 -47 -519 35 -424 196 -632 580 -749 41 -13 80 -27 85
-31 62 -46 288 -52 390 -9 11 4 51 13 88 19 148 25 349 104 520 204 358 212
677 569 782 878 14 40 25 81 25 92 0 16 5 18 26 13 86 -22 76 -31 121 106 51
151 80 265 132 518 49 243 59 312 71 519 41 680 -188 1796 -578 2807 -178 463
-371 849 -619 1240 -158 251 -272 392 -613 759 -263 283 -275 298 -626 761
-254 336 -469 686 -678 1104 -309 620 -446 1098 -496 1740 -17 214 -30 665
-30 1040 0 677 -35 1109 -116 1439 -34 139 -121 390 -184 531 -287 646 -746
1188 -1295 1527 -389 242 -832 395 -1327 458 -145 19 -552 28 -688 15z m-1583
-3066 c-3 -3 -12 -4 -19 -1 -8 3 -5 6 6 6 11 1 17 -2 13 -5z m-217 -98 c0 -2
-8 -10 -17 -17 -16 -13 -17 -12 -4 4 13 16 21 21 21 13z m765 -106 c33 -33 57
-60 54 -60 -2 0 -31 27 -64 60 -33 33 -57 60 -54 60 2 0 31 -27 64 -60z m-855
16 c0 -2 -8 -10 -17 -17 -16 -13 -17 -12 -4 4 13 16 21 21 21 13z m941 -113
c13 -16 12 -17 -3 -4 -10 7 -18 15 -18 17 0 8 8 3 21 -13z m-1134 -375 c-3 -8
-6 -5 -6 6 -1 11 2 17 5 13 3 -3 4 -12 1 -19z m5087 -2561 c50 -35 144 -93
209 -128 145 -79 201 -130 223 -206 24 -83 6 -171 -49 -230 -25 -28 -74 -30
-123 -7 -58 27 -145 133 -204 246 -29 57 -77 144 -107 195 -85 146 -99 193
-57 193 9 0 57 -29 108 -63z m-11085 -12246 c-15 -5 -22 6 -14 19 6 9 10 9 16
-1 5 -8 4 -15 -2 -18z m12714 -1088 c-7 -2 -21 -2 -30 0 -10 3 -4 5 12 5 17 0
24 -2 18 -5z"/>
<path d="M9268 16811 c-155 -50 -280 -185 -342 -371 -69 -208 -51 -469 46
-652 63 -119 103 -149 330 -249 70 -31 101 -39 146 -39 183 0 360 113 450 288
64 123 83 209 83 364 0 275 -136 509 -358 622 -114 57 -248 71 -355 37z m420
-357 c12 -14 22 -38 22 -55 0 -43 -39 -40 -79 6 -34 39 -38 54 -19 73 16 16
48 6 76 -24z"/>
<path d="M6699 16757 c-141 -53 -207 -156 -244 -382 -50 -304 25 -550 226
-740 75 -70 172 -125 194 -109 7 5 52 41 101 81 49 39 128 96 176 125 98 59
99 60 119 203 26 186 -30 438 -133 602 -50 79 -141 164 -213 198 -69 32 -172
42 -226 22z"/>
<path d="M8272 15759 c-104 -32 -1 -99 152 -99 l76 0 0 31 c0 26 -6 33 -46 50
-54 24 -136 32 -182 18z"/>
<path d="M7324 15703 c-18 -19 -24 -36 -22 -57 3 -27 7 -31 33 -31 30 0 30 1
33 58 3 65 -6 71 -44 30z"/>
<path d="M265 2579 c-4 -6 -5 -12 -2 -15 2 -3 7 2 10 11 7 17 1 20 -8 4z"/>
</g>
</svg>
