<?xml version="1.0" standalone="no"?>
<!DOCTYPE svg PUBLIC "-//W3C//DTD SVG 20010904//EN"
 "http://www.w3.org/TR/2001/REC-SVG-20010904/DTD/svg10.dtd">
<svg version="1.0" xmlns="http://www.w3.org/2000/svg"
 width="219.000000pt" height="230.000000pt" viewBox="0 0 219.000000 230.000000"
 preserveAspectRatio="xMidYMid meet">

<g transform="translate(0.000000,230.000000) scale(0.100000,-0.100000)"
fill="#000000" stroke="none">
<path d="M694 2192 c-22 -11 -65 -47 -95 -81 -78 -89 -114 -111 -201 -123
-123 -17 -178 -64 -178 -155 0 -64 -18 -152 -36 -175 -10 -13 -35 -38 -58 -56
-94 -78 -105 -127 -60 -267 29 -90 27 -124 -11 -175 -37 -50 -33 -94 13 -166
22 -32 49 -68 60 -78 12 -11 22 -24 22 -31 0 -23 92 -200 142 -272 95 -138
262 -277 434 -362 316 -156 694 -148 977 20 87 52 254 212 312 299 42 63 101
180 90 180 -2 0 -32 -20 -67 -44 -80 -56 -192 -112 -249 -125 -55 -12 -61 -7
-17 15 204 104 349 330 359 559 1 33 2 78 1 100 l-2 40 -44 -77 c-51 -90 -102
-162 -144 -201 -29 -28 -28 -25 17 65 54 109 71 172 71 271 0 81 -16 151 -50
217 -24 48 -67 107 -57 78 36 -102 39 -241 8 -362 -47 -181 -175 -376 -321
-490 l-35 -27 87 3 c75 4 97 9 160 41 40 19 73 35 74 34 1 -1 -28 -29 -66 -61
-130 -113 -280 -185 -432 -209 l-81 -13 34 -28 c49 -42 130 -76 212 -91 71
-12 72 -12 33 -20 -21 -4 -93 -5 -160 -2 -95 4 -137 11 -195 31 -131 46 -256
125 -368 233 -52 50 -73 65 -73 52 0 -40 43 -128 96 -198 l56 -73 -53 28 c-80
43 -209 175 -247 254 -85 174 -86 381 -4 534 56 105 182 206 315 250 l49 16
121 -49 c224 -89 337 -116 497 -116 115 0 129 2 169 25 63 36 85 69 84 128 -2
150 -192 352 -452 482 -98 49 -233 85 -351 95 -59 5 -91 13 -105 25 -71 63
-205 87 -281 52z m671 -427 c20 -31 2 -65 -33 -65 -49 0 -69 42 -36 75 21 20
53 16 69 -10z"/>
</g>
</svg>
